<?xml version="1.0" encoding="UTF-8"?>
<svg xmlns="http://www.w3.org/2000/svg" xmlns:xlink="http://www.w3.org/1999/xlink" style="position:absolute;width:0;height:0;">
  <defs>
    <!-- Quality diamond (replaces ?) -->
    <symbol id="icon-diamond" viewBox="0 0 24 24">
      <path d="M12 2l10 10-10 10L2 12 12 2z" fill="currentColor"/>
    </symbol>
    <!-- Heart shape (diamond selector) - path translated so center is at 12,12 in 24x24 viewBox -->
    <symbol id="icon-heart" viewBox="0 0 24 24">
  <defs>
    <linearGradient id="icon-heart-gradient" x1="0%" y1="0%" x2="100%" y2="100%">
      <stop offset="0%" stop-color="#b8d4e8"/>
      <stop offset="100%" stop-color="#e2e8f2"/>
    </linearGradient>
  </defs>
  <g transform="translate(-4, -4.75)">
    <path d="M16 26.5c-.15 0-.3-.04-.42-.1C14.96 26.1 6 20.4 6 13 6 9.2 8.6 7 11 7c2.1 0 4 1.1 4.8 2.7C16.6 8.1 18.5 7 21 7c2.4 0 5 2.2 5 6 0 7.4-8.96 13.1-9.58 13.4-.12.06-.27.1-.42.1z" fill="url(#icon-heart-gradient)" stroke="rgba(0,35,96,0.2)" stroke-width="0.75"/>
  </g>
</symbol>
    <!-- Marquise shape (diamond selector) -->
    <symbol id="icon-marquise" viewBox="0 0 32 32">
      <defs>
        <linearGradient id="icon-marquise-gradient" x1="0%" y1="0%" x2="100%" y2="100%">
          <stop offset="0%" stop-color="#b8d4e8"/>
          <stop offset="100%" stop-color="#e2e8f2"/>
        </linearGradient>
      </defs>
      <path d="M0.5 16 Q16 0.5 31.5 16 Q16 31.5 0.5 16 Z" fill="url(#icon-marquise-gradient)" stroke="rgba(0,35,96,0.2)" stroke-width="0.75"/>
    </symbol>
    <!-- Chevron down (select dropdown) -->
    <symbol id="icon-chevron-down" viewBox="0 0 12 12">
      <path fill="currentColor" d="M6 9L1 4h10z"/>
    </symbol>
    <!-- WhatsApp / contact -->
    <symbol id="icon-whatsapp" viewBox="0 0 24 24" fill="currentColor">
      <path d="M17.472 14.382c-.297-.149-1.758-.867-2.03-.967-.273-.099-.471-.148-.67.15-.197.297-.767.966-.94 1.164-.173.199-.347.223-.644.075-.297-.15-1.255-.463-2.39-1.475-.883-.788-1.48-1.761-1.653-2.059-.173-.297-.018-.458.13-.606.134-.133.298-.347.446-.52.149-.174.198-.298.298-.497.099-.198.05-.371-.025-.52-.075-.149-.669-1.612-.916-2.207-.242-.579-.487-.5-.669-.51-.173-.008-.371-.01-.57-.01-.198 0-.52.074-.792.372-.272.297-1.04 1.016-1.04 2.479 0 1.462 1.065 2.875 1.213 3.074.149.198 2.096 3.2 5.077 4.487.709.306 1.262.489 1.694.625.712.227 1.36.195 1.871.118.571-.085 1.758-.719 2.006-1.413.248-.694.248-1.289.173-1.413-.074-.124-.272-.198-.57-.347m-5.421 7.403h-.004a9.87 9.87 0 01-5.031-1.378l-.361-.214-3.741.982.998-3.648-.235-.374a9.86 9.86 0 01-1.51-5.26c.001-5.45 4.436-9.884 9.888-9.884 2.64 0 5.122 1.03 6.988 2.898a9.825 9.825 0 012.893 6.994c-.003 5.45-4.437 9.884-9.885 9.884m8.413-18.297A11.815 11.815 0 0012.05 0C5.495 0 .16 5.335.157 11.892c0 2.096.547 4.142 1.588 5.945L.057 24l6.305-1.654a11.882 11.882 0 005.683 1.448h.005c6.554 0 11.89-5.335 11.893-11.893a11.821 11.821 0 00-3.48-8.413z"/>
    </symbol>
    <!-- Social: Facebook -->
    <symbol id="icon-facebook" viewBox="0 0 24 24" fill="currentColor">
      <path d="M24 12.073c0-6.627-5.373-12-12-12s-12 5.373-12 12c0 5.99 4.388 10.954 10.125 11.854v-8.385H7.078v-3.47h3.047V9.43c0-3.007 1.792-4.669 4.533-4.669 1.312 0 2.686.235 2.686.235v2.953H15.83c-1.491 0-1.956.925-1.956 1.874v2.25h3.328l-.532 3.47h-2.796v8.385C19.612 23.027 24 18.062 24 12.073z"/>
    </symbol>
    <!-- Social: Instagram -->
    <symbol id="icon-instagram" viewBox="0 0 24 24" fill="currentColor">
      <path d="M12 2.163c3.204 0 3.584.012 4.85.07 3.252.148 4.771 1.691 4.919 4.919.058 1.265.069 1.645.069 4.849 0 3.205-.012 3.584-.069 4.849-.149 3.225-1.664 4.771-4.919 4.919-1.266.058-1.644.07-4.85.07-3.204 0-3.584-.012-4.849-.07-3.26-.149-4.771-1.699-4.919-4.92-.058-1.265-.07-1.644-.07-4.849 0-3.204.013-3.583.07-4.849.149-3.227 1.664-4.771 4.919-4.919 1.266-.057 1.645-.069 4.849-.069zM12 0C8.741 0 8.333.014 7.053.072 2.695.272.273 2.69.073 7.052.014 8.333 0 8.741 0 12c0 3.259.014 3.668.072 4.948.2 4.358 2.618 6.78 6.98 6.98C8.333 23.986 8.741 24 12 24c3.259 0 3.668-.014 4.948-.072 4.354-.2 6.782-2.618 6.979-6.98.059-1.28.073-1.689.073-4.948 0-3.259-.014-3.667-.072-4.947-.196-4.354-2.617-6.78-6.979-6.98C15.668.014 15.259 0 12 0zm0 5.838a6.162 6.162 0 100 12.324 6.162 6.162 0 000-12.324zM12 16a4 4 0 110-8 4 4 0 010 8zm6.406-11.845a1.44 1.44 0 100 2.881 1.44 1.44 0 000-2.881z"/>
    </symbol>
    <!-- Social: LinkedIn -->
    <symbol id="icon-linkedin" viewBox="0 0 24 24" fill="currentColor">
      <path d="M20.447 20.452h-3.554v-5.569c0-1.328-.027-3.037-1.852-3.037-1.853 0-2.136 1.445-2.136 2.939v5.667H9.351V9h3.414v1.561h.046c.477-.9 1.637-1.85 3.37-1.85 3.601 0 4.267 2.37 4.267 5.455v6.286zM5.337 7.433c-1.144 0-2.063-.926-2.063-2.065 0-1.138.92-2.063 2.063-2.063 1.14 0 2.064.925 2.064 2.063 0 1.139-.925 2.065-2.064 2.065zm1.782 13.019H3.555V9h3.564v11.452zM22.225 0H1.771C.792 0 0 .774 0 1.729v20.542C0 23.227.792 24 1.771 24h20.451C23.2 24 24 23.227 24 22.271V1.729C24 .774 23.2 0 22.222 0h.003z"/>
    </symbol>
    <!-- Social: YouTube -->
    <symbol id="icon-youtube" viewBox="0 0 24 24" fill="currentColor">
      <path d="M23.498 6.186a3.016 3.016 0 0 0-2.122-2.136C19.505 3.545 12 3.545 12 3.545s-7.505 0-9.377.505A3.017 3.017 0 0 0 .502 6.186C0 8.07 0 12 0 12s0 3.93.502 5.814a3.016 3.016 0 0 0 2.122 2.136c1.871.505 9.376.505 9.376.505s7.505 0 9.377-.505a3.015 3.015 0 0 0 2.122-2.136C24 15.93 24 12 24 12s0-3.93-.502-5.814zM9.545 15.568V8.432L15.818 12l-6.273 3.568z"/>
    </symbol>
    <!-- Decorative diamond sketch: pear -->
    <symbol id="diamond-sketch-pear" viewBox="0 0 120 140" fill="none" stroke="currentColor" stroke-width="0.8">
      <path d="M60 10 Q95 40 90 75 Q85 110 60 130 Q35 110 30 75 Q25 40 60 10 Z"/>
      <line x1="60" y1="10" x2="60" y2="75"/>
      <line x1="60" y1="75" x2="45" y2="95"/>
      <line x1="60" y1="75" x2="75" y2="95"/>
      <line x1="60" y1="75" x2="30" y2="75"/>
      <line x1="60" y1="75" x2="90" y2="75"/>
      <line x1="45" y1="95" x2="30" y2="75"/>
      <line x1="75" y1="95" x2="90" y2="75"/>
      <path d="M60 40 L75 55 L60 70 L45 55 Z"/>
    </symbol>
    <!-- Decorative diamond sketch: round -->
    <symbol id="diamond-sketch-round" viewBox="0 0 100 100" fill="none" stroke="currentColor" stroke-width="0.7">
      <circle cx="50" cy="50" r="45"/>
      <line x1="50" y1="5" x2="50" y2="95"/>
      <line x1="5" y1="50" x2="95" y2="50"/>
      <line x1="18" y1="18" x2="82" y2="82"/>
      <line x1="82" y1="18" x2="18" y2="82"/>
      <path d="M50 50 L50 15 L72 35 L50 50 L28 35 Z"/>
      <path d="M50 50 L72 35 L72 65 L50 50 L28 65 L28 35 Z"/>
    </symbol>
    <!-- Decorative diamond sketch: princess -->
    <symbol id="diamond-sketch-princess" viewBox="0 0 100 100" fill="none" stroke="currentColor" stroke-width="0.8">
      <rect x="10" y="10" width="80" height="80"/>
      <rect x="30" y="30" width="40" height="40"/>
      <line x1="30" y1="30" x2="50" y2="50"/>
      <line x1="70" y1="30" x2="50" y2="50"/>
      <line x1="70" y1="70" x2="50" y2="50"/>
      <line x1="30" y1="70" x2="50" y2="50"/>
      <line x1="10" y1="10" x2="50" y2="50"/>
      <line x1="90" y1="10" x2="50" y2="50"/>
      <line x1="90" y1="90" x2="50" y2="50"/>
      <line x1="10" y1="90" x2="50" y2="50"/>
    </symbol>
    <!-- Footer: small brilliant facet scratches (repeating pattern tile) -->
    <symbol id="footer-diamond-scratch" viewBox="0 0 60 60" fill="none" stroke="currentColor" stroke-width="0.4" stroke-opacity="0.15">
      <path d="M30 0 L30 60 M0 30 L60 30"/>
      <path d="M15 0 L45 60 M45 0 L15 60"/>
      <path d="M0 15 L60 45 M0 45 L60 15"/>
      <path d="M30 0 L0 30 L30 60 L60 30 Z"/>
    </symbol>
  </defs>
</svg>
