<?xml version="1.0" encoding="UTF-8"?>
<svg xmlns="http://www.w3.org/2000/svg" xmlns:xlink="http://www.w3.org/1999/xlink" style="position:absolute;width:0;height:0;">
  <defs>
    <!-- Quality diamond (replaces ?) -->
    <symbol id="icon-diamond" viewBox="0 0 24 24">
      <path d="M12 2l10 10-10 10L2 12 12 2z" fill="currentColor"/>
    </symbol>
    <!-- Heart shape (diamond selector) - path translated so center is at 12,12 in 24x24 viewBox -->
    <symbol id="icon-heart" viewBox="0 0 24 24">
      <defs>
        <linearGradient id="icon-heart-gradient" x1="0%" y1="0%" x2="100%" y2="100%">
          <stop offset="0%" stop-color="#b8d4e8"/>
          <stop offset="100%" stop-color="#e2e8f2"/>
        </linearGradient>
      </defs>
      <g transform="translate(-1.5, -2.35)">
        <path d="M16 26.5c-.15 0-.3-.04-.42-.1C14.96 26.1 6 20.4 6 13 6 9.2 8.6 7 11 7c2.1 0 4 1.1 4.8 2.7C16.6 8.1 18.5 7 21 7c2.4 0 5 2.2 5 6 0 7.4-8.96 13.1-9.58 13.4-.12.06-.27.1-.42.1z" fill="url(#icon-heart-gradient)" stroke="rgba(0,35,96,0.2)" stroke-width="0.75"/>
      </g>
    </symbol>
    <!-- Marquise shape (diamond selector) -->
    <symbol id="icon-marquise" viewBox="0 0 32 32">
      <defs>
        <linearGradient id="icon-marquise-gradient" x1="0%" y1="0%" x2="100%" y2="100%">
          <stop offset="0%" stop-color="#b8d4e8"/>
          <stop offset="100%" stop-color="#e2e8f2"/>
        </linearGradient>
      </defs>
      <path d="M0.5 16 Q16 0.5 31.5 16 Q16 31.5 0.5 16 Z" fill="url(#icon-marquise-gradient)" stroke="rgba(0,35,96,0.2)" stroke-width="0.75"/>
    </symbol>
    <!-- Chevron down (select dropdown) -->
    <symbol id="icon-chevron-down" viewBox="0 0 12 12">
      <path fill="currentColor" d="M6 9L1 4h10z"/>
    </symbol>
    <!-- WhatsApp / contact -->
    <symbol id="icon-whatsapp" viewBox="0 0 24 24" fill="currentColor">
      <path d="M17.472 14.382c-.297-.149-1.758-.867-2.03-.967-.273-.099-.471-.148-.67.15-.197.297-.767.966-.94 1.164-.173.199-.347.223-.644.075-.297-.15-1.255-.463-2.39-1.475-.883-.788-1.48-1.761-1.653-2.059-.173-.297-.018-.458.13-.606.134-.133.298-.347.446-.52.149-.174.198-.298.298-.497.099-.198.05-.371-.025-.52-.075-.149-.669-1.612-.916-2.207-.242-.579-.487-.5-.669-.51-.173-.008-.371-.01-.57-.01-.198 0-.52.074-.792.372-.272.297-1.04 1.016-1.04 2.479 0 1.462 1.065 2.875 1.213 3.074.149.198 2.096 3.2 5.077 4.487.709.306 1.262.489 1.694.625.712.227 1.36.195 1.871.118.571-.085 1.758-.719 2.006-1.413.248-.694.248-1.289.173-1.413-.074-.124-.272-.198-.57-.347m-5.421 7.403h-.004a9.87 9.87 0 01-5.031-1.378l-.361-.214-3.741.982.998-3.648-.235-.374a9.86 9.86 0 01-1.51-5.26c.001-5.45 4.436-9.884 9.888-9.884 2.64 0 5.122 1.03 6.988 2.898a9.825 9.825 0 012.893 6.994c-.003 5.45-4.437 9.884-9.885 9.884m8.413-18.297A11.815 11.815 0 0012.05 0C5.495 0 .16 5.335.157 11.892c0 2.096.547 4.142 1.588 5.945L.057 24l6.305-1.654a11.882 11.882 0 005.683 1.448h.005c6.554 0 11.89-5.335 11.893-11.893a11.821 11.821 0 00-3.48-8.413z"/>
    </symbol>
    <!-- Decorative diamond sketch: pear -->
    <symbol id="diamond-sketch-pear" viewBox="0 0 120 140" fill="none" stroke="currentColor" stroke-width="0.8">
      <path d="M60 10 Q95 40 90 75 Q85 110 60 130 Q35 110 30 75 Q25 40 60 10 Z"/>
      <line x1="60" y1="10" x2="60" y2="75"/>
      <line x1="60" y1="75" x2="45" y2="95"/>
      <line x1="60" y1="75" x2="75" y2="95"/>
      <line x1="60" y1="75" x2="30" y2="75"/>
      <line x1="60" y1="75" x2="90" y2="75"/>
      <line x1="45" y1="95" x2="30" y2="75"/>
      <line x1="75" y1="95" x2="90" y2="75"/>
      <path d="M60 40 L75 55 L60 70 L45 55 Z"/>
    </symbol>
    <!-- Decorative diamond sketch: round -->
    <symbol id="diamond-sketch-round" viewBox="0 0 100 100" fill="none" stroke="currentColor" stroke-width="0.7">
      <circle cx="50" cy="50" r="45"/>
      <line x1="50" y1="5" x2="50" y2="95"/>
      <line x1="5" y1="50" x2="95" y2="50"/>
      <line x1="18" y1="18" x2="82" y2="82"/>
      <line x1="82" y1="18" x2="18" y2="82"/>
      <path d="M50 50 L50 15 L72 35 L50 50 L28 35 Z"/>
      <path d="M50 50 L72 35 L72 65 L50 50 L28 65 L28 35 Z"/>
    </symbol>
    <!-- Decorative diamond sketch: princess -->
    <symbol id="diamond-sketch-princess" viewBox="0 0 100 100" fill="none" stroke="currentColor" stroke-width="0.8">
      <rect x="10" y="10" width="80" height="80"/>
      <rect x="30" y="30" width="40" height="40"/>
      <line x1="30" y1="30" x2="50" y2="50"/>
      <line x1="70" y1="30" x2="50" y2="50"/>
      <line x1="70" y1="70" x2="50" y2="50"/>
      <line x1="30" y1="70" x2="50" y2="50"/>
      <line x1="10" y1="10" x2="50" y2="50"/>
      <line x1="90" y1="10" x2="50" y2="50"/>
      <line x1="90" y1="90" x2="50" y2="50"/>
      <line x1="10" y1="90" x2="50" y2="50"/>
    </symbol>
  </defs>
</svg>
